{"title":"Hunter X Hunter - 138 [Hi10 720p] [ENG SUBBED] [GWC].mp4","uid":10563965,"size":72342355,"categoryP":"video","categoryS":"tv_shows","magnet":"?xt=urn:btih:35c0e1aa87b219dd460149971c551b55494cea7e&amp;dn=Hunter+X+Hunter+-+138+%5BHi10+720p%5D+%5BENG+SUBBED%5D+%5BGWC%5D.mp4&amp;tr=udp%3A%2F%2Ftracker.openbittorrent.com%3A80&amp;tr=udp%3A%2F%2Fopen.demonii.com%3A1337&amp;tr=udp%3A%2F%2Ftracker.coppersurfer.tk%3A6969&amp;tr=udp%3A%2F%2Fexodus.desync.com%3A6969","seeders":2,"leechers":0,"uploader":"canc232","files":1,"time":1405495203,"description":"Hunter X Hunter - 138 [Hi10 720p] [ENG SUBBED] [GWC] \n\n\n\nSTORYLINE :\nGon is a youth who lives on Kujira Isle. His dream is to become a Hunter like his father, to search out lost treasures, artefacts, and mythical creatures.\nDetermined to become a professional Hunter willing to stake his life in challenging the unknown, he sets off on a journey and meets fellow Hunter wannabes Killua, Kurapika, and Leorio.\n\n\n\nTHUMBNAIL IMAGE : &lt;a href=&quot;\nhttp://i.imgur.com/5wpFtV3.jpg&quot; rel=&quot;nofollow&quot; target=&quot;_NEW&quot;&gt;\nhttp://i.imgur.com/5wpFtV3.jpg&lt;/a&gt;\n\n\n\nMEDIA INFO :\nGeneral \nFormat : MPEG-4 \nFormat profile : Base Media \nFile size : 69.0 MiB \nDuration : 21mn 5s \nOverall bit rate mode : Variable \nOverall bit rate : 457 Kbps \n\nVideo \nFormat : AVC \nFormat profile : High &lt;a class=&quot;__cf_email__&quot; href=&quot;/cdn-cgi/l/email-protection&quot; data-cfemail=&quot;bc8d8cfcf088928d&quot;&gt;[email&amp;#160;protected]&lt;/a&gt;&lt;script cf-hash='f9e31' type=&quot;text/javascript&quot;&gt;\n/* &lt;![CDATA[ */!function(){try{var t=&quot;currentScript&quot;in document?document.currentScript:function(){for(var t=document.getElementsByTagName(&quot;script&quot;),e=t.length;e--;)if(t[e].getAttribute(&quot;cf-hash&quot;))return t[e]}();if(t&amp;&amp;t.previousSibling){var e,r,n,i,c=t.previousSibling,a=c.getAttribute(&quot;data-cfemail&quot;);if(a){for(e=&quot;&quot;,r=parseInt(a.substr(0,2),16),n=2;a.length-n;n+=2)i=parseInt(a.substr(n,2),16)^r,e+=String.fromCharCode(i);e=document.createTextNode(e),c.parentNode.replaceChild(e,c)}}}catch(u){}}();/* ]]&gt; */&lt;/script&gt; \nFormat settings, CABAC : Yes \nFormat settings, ReFrames : 10 frames \nDuration : 21mn 5s \nBit rate : 381 Kbps \nMaximum bit rate : 1 823 Kbps \nWidth : 1 280 pixels \nHeight : 720 pixels \nDisplay aspect ratio : 16:9 \nFrame rate mode : Variable \nFrame rate : 23.976 fps \nStream size : 57.5 MiB (83%) \nTitle : Hunter X Hunter - 138 [Hi10 720p] [ENG SUBBED] [GWC] \nWriting library : x264 core\n\nAudio \nFormat : AAC \nFormat profile : HE-AAC / LC \nDuration : 21mn 5s \nBit rate mode : Variable \nChannel(s) : 2 channels \nSampling rate : 48.0 KHz / 24.0 KHz \nStream size : 10.9 MiB (16%) \nLanguage : English \n\nText \nFormat : Timed Text \nTitle : [GWC] \nLanguage : English ","torrent":{"xt":"urn:btih:35c0e1aa87b219dd460149971c551b55494cea7e","amp;dn":"Hunter+X+Hunter+-+138+%5BHi10+720p%5D+%5BENG+SUBBED%5D+%5BGWC%5D.mp4","amp;tr":["udp%3A%2F%2Ftracker.openbittorrent.com%3A80","udp%3A%2F%2Fopen.demonii.com%3A1337","udp%3A%2F%2Ftracker.coppersurfer.tk%3A6969","udp%3A%2F%2Fexodus.desync.com%3A6969"],"infoHash":"35c0e1aa87b219dd460149971c551b55494cea7e","infoHashBuffer":{"type":"Buffer","data":[53,192,225,170,135,178,25,221,70,1,73,151,28,85,27,85,73,76,234,126]},"announce":[],"urlList":[]}}